<?xml version="1.0" encoding="utf-8"?>
<!-- Generator: Adobe Illustrator 15.0.0, SVG Export Plug-In  -->
<!DOCTYPE svg PUBLIC "-//W3C//DTD SVG 1.1//EN" "http://www.w3.org/Graphics/SVG/1.1/DTD/svg11.dtd" [
	<!ENTITY ns_flows "http://ns.adobe.com/Flows/1.0/">
]>
<svg version="1.1"
	 xmlns="http://www.w3.org/2000/svg" xmlns:xlink="http://www.w3.org/1999/xlink" xmlns:a="http://ns.adobe.com/AdobeSVGViewerExtensions/3.0/"
	 x="0px" y="0px" width="60px" height="60px" viewBox="-22.59 -22.41 60 60"
	 overflow="visible" enable-background="new -22.59 -22.41 60 60" xml:space="preserve">
<defs>
</defs>
<path fill="#D8D8D8" d="M15,13.872c0,0.338-0.113,0.564-0.339,0.789C14.436,14.887,14.211,15,13.873,15
	c-0.34,0-0.564-0.113-0.79-0.339l-3.157-3.157c-1.129,0.789-2.257,1.128-3.61,1.128c-0.902,0-1.692-0.112-2.481-0.451
	c-0.79-0.338-1.466-0.79-2.03-1.354c-0.564-0.563-1.015-1.24-1.354-2.03C0.113,8.008,0,7.219,0,6.316
	c0-0.903,0.113-1.692,0.451-2.482C0.79,3.046,1.24,2.368,1.805,1.805c0.563-0.564,1.24-1.015,2.03-1.354
	C4.624,0.113,5.414,0,6.316,0s1.692,0.113,2.481,0.451c0.789,0.339,1.467,0.789,2.03,1.354c0.563,0.563,1.015,1.241,1.353,2.029
	c0.34,0.79,0.452,1.579,0.452,2.482c0,1.353-0.339,2.594-1.128,3.608l3.157,3.158C14.887,13.195,15,13.534,15,13.872z M9.135,9.136
	c0.791-0.79,1.241-1.805,1.241-2.933s-0.45-2.03-1.241-2.933C8.346,2.48,7.331,2.03,6.203,2.03s-2.03,0.45-2.933,1.24
	c-0.789,0.79-1.24,1.805-1.24,2.933s0.451,2.03,1.24,2.933c0.79,0.901,1.805,1.24,2.933,1.24S8.346,9.925,9.135,9.136z"/>
</svg>
